<svg xmlns="http://www.w3.org/2000/svg" viewBox="0 0 106.6 73.72"><defs><style>.cls-1{fill:#231f20;}</style></defs><g id="Layer_2" data-name="Layer 2"><g id="Layer_1-2" data-name="Layer 1"><path class="cls-1" d="M25.12,7a9.27,9.27,0,0,0-4.36-1.06Q14,5.93,14,14.28v6h9.48v5.94H14V60.83H6.92V26.26H0V20.32H6.92V14q0-6.51,3.75-10.23A13,13,0,0,1,20.21,0a14,14,0,0,1,4.91.7Z"/><path class="cls-1" d="M41.89,73.72Q29.56,59.65,29.55,39.18T41.89,4.1h6.34a53.86,53.86,0,0,0-12.38,35A52.55,52.55,0,0,0,48.16,73.72Z"/><path class="cls-1" d="M86.06,20.32,72.51,40.72,85.88,60.83H77.53L69.8,47.94c-.42-.69-1-1.74-1.76-3.15H67.9c0,.14-.64,1.19-1.84,3.15L58.19,60.83H50L63.72,40.94,50.57,20.32h8.35L66.5,33.87c.47.83,1,1.91,1.69,3.23h.14l9.86-16.78Z"/><path class="cls-1" d="M87.93,73.72a52.43,52.43,0,0,0,12.34-34.61,53.65,53.65,0,0,0-12.42-35h6.38q12.38,14.5,12.37,35.08T94.23,73.72Z"/></g></g></svg>