<svg xmlns="http://www.w3.org/2000/svg" viewBox="0 0 994.57 182.73"><defs><style>.cls-1{fill:#fff;}.cls-2{fill:#009145;}</style></defs><title>Asset 1</title><g id="Layer_2" data-name="Layer 2"><g id="Layer_1-2" data-name="Layer 1"><path class="cls-1" d="M306.47,116.06l.5-1.1-7.5-3.7-.5,1.3a37.27,37.27,0,0,1-4.2,8.2,34.56,34.56,0,0,1-5.9,6.7,31.23,31.23,0,0,1-7.8,4.5,28.41,28.41,0,0,1-9.8,1.7,25.86,25.86,0,0,1-12.8-3.2,29.27,29.27,0,0,1-10-8.9,43,43,0,0,1-6.6-13.4,59.45,59.45,0,0,1-2.4-16.9,74.38,74.38,0,0,1,2.3-19,40,40,0,0,1,6.1-13.8,27.9,27.9,0,0,1,9.5-8.4,25.62,25.62,0,0,1,11.8-2.8,18,18,0,0,1,9.7,2.5,23.72,23.72,0,0,1,7.5,7,42.75,42.75,0,0,1,5,9.8,100.58,100.58,0,0,1,3.3,10.9l.2,1h8l-.7-37.5h-7.5l-2.6,4.3a59,59,0,0,0-10.3-4.6,47.14,47.14,0,0,0-13.4-1.9,46.15,46.15,0,0,0-34.1,14.8,50.25,50.25,0,0,0-10.2,16.9,62.27,62.27,0,0,0-3.7,21.8,59,59,0,0,0,3.8,21.6,52.1,52.1,0,0,0,10,16.3,42.35,42.35,0,0,0,14.7,10.2,43.27,43.27,0,0,0,17.3,3.6c9.2,0,17.3-2.2,24-6.5S302.37,126.06,306.47,116.06Z"/><path class="cls-1" d="M456.47,116.36h-6.2l-.3.9a49.29,49.29,0,0,1-3.4,7.6,32.93,32.93,0,0,1-5.1,7.7,5.52,5.52,0,0,1-2.5,1.2,29.67,29.67,0,0,1-4.1.8,34.75,34.75,0,0,1-4.9.2h-4.7a57.72,57.72,0,0,1-6.8-.3,7.13,7.13,0,0,1-3.3-1.1,4.12,4.12,0,0,1-1.4-2.3,22.7,22.7,0,0,1-.5-5.2v-21.8h7.5a18.84,18.84,0,0,1,5.3.6,6.08,6.08,0,0,1,3.2,2.4,12.43,12.43,0,0,1,1.7,3.8,21.08,21.08,0,0,1,1.1,5.2l.1,1.1h6.5V84.46h-6.5l-.2,1.1a24.16,24.16,0,0,1-1.1,4.7,12.24,12.24,0,0,1-1.8,3.8,7.07,7.07,0,0,1-2.9,2.3,16.24,16.24,0,0,1-5.6.7h-7.5v-28h10.8c2,0,3.7.1,5.3.1s2.8.2,4,.3c1.8.2,3.9,1.8,6.1,4.6a24.83,24.83,0,0,1,4.5,8.4l.2.9h6.3v-21h-62.2v6.3l1.2.1c.9.1,2.2.3,3.8.6s2.8.8,3.7,1.1a3.92,3.92,0,0,1,1.9,1.6,7.63,7.63,0,0,1,.5,2.7v55.4a6.49,6.49,0,0,1-.5,2.7,4.47,4.47,0,0,1-1.9,1.6,12.38,12.38,0,0,1-3.1.6c-1.7.2-3.2.4-4.3.5l-1,.1h0l-1.2-.1c-.8-.1-2-.2-3.3-.4a8.62,8.62,0,0,1-3.2-1,23.05,23.05,0,0,1-3.7-2.4,21.54,21.54,0,0,1-4.1-4.6c-3.7-4.9-6.8-9.1-9.2-12.5-2.3-3.1-5.1-6.9-8.4-11.2a48.43,48.43,0,0,0,6.1-2.4,26.19,26.19,0,0,0,6.2-4.3,17.63,17.63,0,0,0,4.3-6.4,21.77,21.77,0,0,0,1.4-8.4,18.84,18.84,0,0,0-2.2-9.1,18.11,18.11,0,0,0-5.8-6.2,27.28,27.28,0,0,0-8.2-3.4,41,41,0,0,0-9.4-1.1h-36.8v6.3l1.2.1c.9.1,2.1.2,3.6.5a26.76,26.76,0,0,1,3.3.8c1,.4,1.6.8,1.8,1.4a8.53,8.53,0,0,1,.5,3V130a6,6,0,0,1-.6,2.9,3.59,3.59,0,0,1-1.7,1.5,8.75,8.75,0,0,1-3.1.6c-1.7.2-2.9.3-3.8.4l-1.1.1v6.3h35.1v-6.2l-1.2-.1c-1.1-.1-2.4-.2-4-.4a15.6,15.6,0,0,1-3.1-.6A2.81,2.81,0,0,1,336,133a8,8,0,0,1-.5-2.9v-23.2h6c4.3,5.5,8.2,10.7,11.6,15.6,3.7,5.2,7.9,11.5,12.4,18.6l.4.6h89.2Zm-103.4-21.2a15.84,15.84,0,0,1-11.5,4.5h-5.9V69.16h8c4.6,0,8.1,1.3,10.4,3.7a14.17,14.17,0,0,1,3.7,10.2C357.57,88.16,356.07,92.16,353.07,95.16Z"/><path class="cls-1" d="M510.47,139.26a42.79,42.79,0,0,0,13.7-7.2,34.85,34.85,0,0,0,9.9-12.2,37.74,37.74,0,0,0,3.9-17.6,43.88,43.88,0,0,0-4-19,36.09,36.09,0,0,0-11-13.1,42.77,42.77,0,0,0-12.1-6,48.13,48.13,0,0,0-14-2.2H462v6.3l1.2.1a26.72,26.72,0,0,1,3.3.5,12.81,12.81,0,0,1,3.3,1.1,3.59,3.59,0,0,1,1.9,1.7,6.1,6.1,0,0,1,.5,2.8V130a5.15,5.15,0,0,1-.6,2.7,3,3,0,0,1-1.8,1.5,10.24,10.24,0,0,1-3,.5,35.84,35.84,0,0,1-4,.3h-1.3v6.4h33.1A44.65,44.65,0,0,0,510.47,139.26Zm-24.3-12.2v-58l3-.1c1.9-.1,3.5-.1,5-.1a26.58,26.58,0,0,1,11.5,2.4,25.45,25.45,0,0,1,8.8,6.7,31.55,31.55,0,0,1,5.8,10.5,41.77,41.77,0,0,1,2,13.6,54.05,54.05,0,0,1-1.5,13.5,30.28,30.28,0,0,1-4.7,10.1,21.51,21.51,0,0,1-7.9,6.4,27.77,27.77,0,0,1-11.5,2.4c-3.7,0-6.5-.5-8.2-1.7C486.87,131.86,486.17,130,486.17,127.06Z"/><path class="cls-1" d="M609.37,71.66a35.15,35.15,0,0,0-12.1-8.4,38.65,38.65,0,0,0-29.5-.1,36,36,0,0,0-12.2,8.4,39.78,39.78,0,0,0-8.4,13.1,46.29,46.29,0,0,0-3,17.2,47.88,47.88,0,0,0,2.9,16.6,37.52,37.52,0,0,0,8,13.1,36.36,36.36,0,0,0,12.1,8.7,37,37,0,0,0,15.3,3.1,36.91,36.91,0,0,0,26.8-11.4,38.25,38.25,0,0,0,8.4-13.1,47.26,47.26,0,0,0,3-17.1,47.26,47.26,0,0,0-3-17.1A39.67,39.67,0,0,0,609.37,71.66Zm-5.9,44a35.9,35.9,0,0,1-4.3,10.8h0a19.88,19.88,0,0,1-7.2,7.2,19.14,19.14,0,0,1-9.8,2.6,18.21,18.21,0,0,1-9.9-2.5,19.86,19.86,0,0,1-7-7.1,33.47,33.47,0,0,1-4.3-10.8,65.09,65.09,0,0,1-1.4-13.8,67.64,67.64,0,0,1,1.3-13.1,32.81,32.81,0,0,1,4-10.8,21.63,21.63,0,0,1,7.1-7.6,18.85,18.85,0,0,1,10.3-2.8,18.49,18.49,0,0,1,9.6,2.4A20.92,20.92,0,0,1,599,77a36,36,0,0,1,4.4,10.9,62.51,62.51,0,0,1,1.5,14.2A63.85,63.85,0,0,1,603.47,115.66Z"/><path class="cls-1" d="M692.37,94.56h0a32.5,32.5,0,0,0-7-5.6,78.2,78.2,0,0,0-8.1-4.2c-3.1-1.4-6.4-2.7-9.4-3.8a90.23,90.23,0,0,1-9.8-4.2,21,21,0,0,1-8.2-6.5,16.38,16.38,0,0,1-2.8-9.7,11.75,11.75,0,0,1,4.3-9.3,14.42,14.42,0,0,1,10.3-3.9,20.71,20.71,0,0,1,9.9,2.2,21.13,21.13,0,0,1,6.9,6.1,35.27,35.27,0,0,1,4.8,9c1.2,3.3,2.4,6.9,3.4,10.5l.2.9h7.9l-.6-35h-7.5l-2.6,4.3a66.84,66.84,0,0,0-8.9-4.3,35.63,35.63,0,0,0-12.5-2.2,33.33,33.33,0,0,0-11.8,2.1,28.2,28.2,0,0,0-9.8,5.9,29.72,29.72,0,0,0-6.8,9.1,25.5,25.5,0,0,0-2.4,10.9c0,6.8,1.7,12.3,4.9,16.6a33.06,33.06,0,0,0,13.4,10.1c2.8,1.3,6.2,2.7,10,4.2s7.3,2.7,10.2,4a19.24,19.24,0,0,1,9.3,7.3,19,19,0,0,1,3.1,10.2,19.68,19.68,0,0,1-1,6.7,14.38,14.38,0,0,1-3,4.9,14.55,14.55,0,0,1-5.3,3.3,23.44,23.44,0,0,1-7.9,1.2,22.9,22.9,0,0,1-10.5-2.3,28.67,28.67,0,0,1-8.1-6.2,40.48,40.48,0,0,1-5.9-9.1,87.61,87.61,0,0,1-4-11l-.2-.9h-8.2l1.1,36.1h7.5l2.7-4.6a53.46,53.46,0,0,0,10.5,4.4,45.58,45.58,0,0,0,13.4,2.1c9.7,0,18.1-3,24.7-8.8a28.56,28.56,0,0,0,10-22.4,26.69,26.69,0,0,0-1.6-9.9A21.47,21.47,0,0,0,692.37,94.56Z"/><path class="cls-1" d="M767.87,117.36a49.29,49.29,0,0,1-3.4,7.6,32.93,32.93,0,0,1-5.1,7.7,5.52,5.52,0,0,1-2.5,1.2,29.67,29.67,0,0,1-4.1.8,34.75,34.75,0,0,1-4.9.2h-4.7a57.72,57.72,0,0,1-6.8-.3,7.13,7.13,0,0,1-3.3-1.1,4.12,4.12,0,0,1-1.4-2.3,22.7,22.7,0,0,1-.5-5.2v-21.8h7.5a18.84,18.84,0,0,1,5.3.6,6.08,6.08,0,0,1,3.2,2.4,12.43,12.43,0,0,1,1.7,3.8,21.08,21.08,0,0,1,1.1,5.2l.1,1.1h6.5V84.56h-6.5l-.2,1.1a24.16,24.16,0,0,1-1.1,4.7,12.24,12.24,0,0,1-1.8,3.8,7.07,7.07,0,0,1-2.9,2.3,16.24,16.24,0,0,1-5.6.7H731v-28h10.8c2,0,3.7.1,5.3.1s2.8.2,4,.3c1.8.2,3.9,1.8,6.1,4.6a24.83,24.83,0,0,1,4.5,8.4l.2.9h6.3V62.06H706v6.3l1.2.1c.9.1,2.2.3,3.8.6s2.8.8,3.7,1.1a3.92,3.92,0,0,1,1.9,1.6,7.63,7.63,0,0,1,.5,2.7v55.4a6.49,6.49,0,0,1-.5,2.7,4.47,4.47,0,0,1-1.9,1.6,12.38,12.38,0,0,1-3.1.6c-1.7.2-3.2.4-4.3.5l-1.2.1v6.3h66.3l1.7-25.2h-6.2Z"/><path class="cls-1" d="M788.77,128.76a6.8,6.8,0,0,1-2.2,4c-.2.2-.8.6-3.9,1.4a20.68,20.68,0,0,1-4.7,1l-1.1.1v6.3H811v-6.2l-1.2-.1a24.15,24.15,0,0,1-4.9-1.1c-3-.8-4.2-1.5-4.6-2-1-.8-1.7-2.4-2.2-4.5a48.91,48.91,0,0,1-.8-9.9V81.86l44.5,59.9.4.5h6.6V84.56a49.14,49.14,0,0,1,.7-9.5c.4-2.2,1.1-3.7,2.1-4.4a12.33,12.33,0,0,1,4.2-1.5,21.77,21.77,0,0,1,4.4-.8l1.2-.1v-6.4h-33.8v6.3l1.2.1a23.68,23.68,0,0,1,4.9,1.1,18.69,18.69,0,0,1,4.6,1.8c.6.5,1.4,1.4,2.1,4.1a50,50,0,0,1,.8,10V118l-41-55.6-.4-.5h-23.9v6.3l1.2.1a19.36,19.36,0,0,1,5,1.3,15,15,0,0,1,4.9,2.8,8.81,8.81,0,0,1,2,3.3,14.35,14.35,0,0,1,.8,4.6v37.9C789.47,123.36,789.27,126.76,788.77,128.76Z"/><path class="cls-1" d="M903.87,132.56a9.54,9.54,0,0,1-4,2.4,21.11,21.11,0,0,1-14.4-.8,19.51,19.51,0,0,1-6.2-4.8,28.74,28.74,0,0,1-4.6-7.1,54.92,54.92,0,0,1-3.1-8.7l-.2-.9h-6.7l.8,28.9h6.3l2.1-3.5a42.79,42.79,0,0,0,8.1,3.3,36.61,36.61,0,0,0,10.6,1.7c7.8,0,14.3-2.4,19.5-7a22.48,22.48,0,0,0,8-17.8,24.38,24.38,0,0,0-1.3-8,17.82,17.82,0,0,0-3.9-6.4h0a22.27,22.27,0,0,0-5.6-4.4,56.69,56.69,0,0,0-6.5-3.3q-3.6-1.65-7.5-3a71.29,71.29,0,0,1-7.7-3.3,15.41,15.41,0,0,1-6.3-5,12.87,12.87,0,0,1-2.1-7.6,9.25,9.25,0,0,1,3.3-7.2,11.09,11.09,0,0,1,8-3,16.52,16.52,0,0,1,7.7,1.7,14.91,14.91,0,0,1,5.3,4.7,27.48,27.48,0,0,1,3.7,7c1,2.6,1.8,5.4,2.7,8.4l.2.9h6.7l-.5-28H910l-2,3.3a47.57,47.57,0,0,0-6.8-3.3,28.68,28.68,0,0,0-19.4,0,23.57,23.57,0,0,0-7.8,4.7,22.32,22.32,0,0,0-5.5,7.2,20.06,20.06,0,0,0-1.9,8.7c0,5.4,1.3,9.7,3.9,13.1a27.14,27.14,0,0,0,10.5,8.1c2.3,1.1,4.9,2.1,8,3.3s5.8,2.2,8.1,3.1a14.71,14.71,0,0,1,7.2,5.6,14.42,14.42,0,0,1,2.4,8,13.87,13.87,0,0,1-.8,5.2A6.71,6.71,0,0,1,903.87,132.56Z"/><path class="cls-1" d="M994.57,116.36h-6.2l-.3.9a49.29,49.29,0,0,1-3.4,7.6,32.93,32.93,0,0,1-5.1,7.7,5.52,5.52,0,0,1-2.5,1.2,29.67,29.67,0,0,1-4.1.8,34.75,34.75,0,0,1-4.9.2h-4.7a57.72,57.72,0,0,1-6.8-.3,7.13,7.13,0,0,1-3.3-1.1,4.12,4.12,0,0,1-1.4-2.3,22.7,22.7,0,0,1-.5-5.2v-21.8h7.5a18.84,18.84,0,0,1,5.3.6,6.08,6.08,0,0,1,3.2,2.4,12.43,12.43,0,0,1,1.7,3.8,21.08,21.08,0,0,1,1.1,5.2l.1,1.1h6.5V84.46h-6.5l-.2,1.1a24.16,24.16,0,0,1-1.1,4.7,12.24,12.24,0,0,1-1.8,3.8,7.07,7.07,0,0,1-2.9,2.3,16.24,16.24,0,0,1-5.6.7h-7.5v-28H962c2,0,3.7.1,5.3.1s2.8.2,4,.3c1.8.2,3.9,1.8,6.1,4.6a24.83,24.83,0,0,1,4.5,8.4l.2.9h6.3v-21h-62v6.3l1.2.1c.9.1,2.2.3,3.8.6s2.8.8,3.7,1.1a3.92,3.92,0,0,1,1.9,1.6,7.63,7.63,0,0,1,.5,2.7v55.4a6.49,6.49,0,0,1-.5,2.7,4.47,4.47,0,0,1-1.9,1.6,12.38,12.38,0,0,1-3.1.6c-1.7.2-3.2.4-4.3.5l-1.2.1V142h66.3Z"/><circle class="cls-1" cx="91.36" cy="91.36" r="91.36"/><path class="cls-2" d="M135.53,46c-6.36-5.47-41.94,27.73-44.11,34.3,5.67-5,16.38-10.65,17.81-8.37s-9,13.62-17.81,13.62S72.22,74.18,73.6,72s12.14,3.39,17.82,8.37C89.14,73.76,53.61,40.56,47.3,46,40,52.34,72.43,89.51,91.42,89.51S143,52.34,135.53,46Z"/><path class="cls-2" d="M118.67,37.91C114.7,34.52,92.8,55,91.36,59.12c3.56-3.12,10.13-6.57,11-5.14s-5.51,8.43-11,8.43-11.87-7-11-8.43,7.48,2.12,11,5.14C90,55,68,34.57,64.06,37.91,59.5,41.84,79.59,64.8,91.36,64.8S123.23,41.84,118.67,37.91Z"/><path class="cls-2" d="M162.9,59.28C152.56,50.48,95,104.14,91.36,114.8c9.18-8.11,26.52-17.18,28.8-13.57s-14.48,22.06-28.8,22.06-31.07-18.4-28.79-22.06,19.57,5.46,28.79,13.57c-3.65-10.66-61.19-64.37-71.48-55.52C8,69.52,60.56,129.65,91.36,129.65S174.72,69.57,162.9,59.28Z"/><path class="cls-2" d="M91.36,145.13a117.57,117.57,0,0,0,45.18-9H46.24A117.27,117.27,0,0,0,91.36,145.13Z"/></g></g></svg>